HIERARCHY
ROOT Hips
{
	OFFSET 0.000000 0.000000 0.000000
	CHANNELS 6 Xposition Yposition Zposition Zrotation Yrotation Xrotation 
	JOINT LHipJoint
	{
		OFFSET 0.000000 0.000000 0.000000
		CHANNELS 3 Zrotation Yrotation Xrotation
		JOINT LeftUpLeg
		{
			OFFSET 1.363060 -1.794630 0.839290
			CHANNELS 3 Zrotation Yrotation Xrotation
			JOINT LeftLeg
			{
				OFFSET 2.448110 -6.726130 0.000000
				CHANNELS 3 Zrotation Yrotation Xrotation
				JOINT LeftFoot
				{
					OFFSET 2.562200 -7.039590 0.000000
					CHANNELS 3 Zrotation Yrotation Xrotation
					JOINT LeftToeBase
					{
						OFFSET 0.157640 -0.433110 2.322550
						CHANNELS 3 Zrotation Yrotation Xrotation
						End Site
						{
							OFFSET 0.000000 0.000000 0.000000
						}
					}
				}
			}
		}
	}
	JOINT RHipJoint
	{
		OFFSET 0.000000 0.000000 0.000000
		CHANNELS 3 Zrotation Yrotation Xrotation
		JOINT RightUpLeg
		{
			OFFSET -1.305520 -1.794630 0.839290
			CHANNELS 3 Zrotation Yrotation Xrotation
			JOINT RightLeg
			{
				OFFSET -2.542530 -6.985550 0.000000
				CHANNELS 3 Zrotation Yrotation Xrotation
				JOINT RightFoot
				{
					OFFSET -2.568260 -7.056230 0.000000
					CHANNELS 3 Zrotation Yrotation Xrotation
					JOINT RightToeBase
					{
						OFFSET -0.164730 -0.452590 2.363150
						CHANNELS 3 Zrotation Yrotation Xrotation
						End Site
						{
							OFFSET 0.000000 0.000000 0.000000
						}
					}
				}
			}
		}
	}
	JOINT LowerBack
	{
		OFFSET 0.000000 0.000000 0.000000
		CHANNELS 3 Zrotation Yrotation Xrotation
		JOINT Spine
		{
			OFFSET 0.028270 2.035590 -0.193380
			CHANNELS 3 Zrotation Yrotation Xrotation
			JOINT Spine1
			{
				OFFSET 0.056720 2.048850 -0.042750
				CHANNELS 3 Zrotation Yrotation Xrotation
				JOINT Neck
				{
					OFFSET 0.000000 0.000000 0.000000
					CHANNELS 3 Zrotation Yrotation Xrotation
					JOINT Neck1
					{
						OFFSET -0.054170 1.746240 0.172020
						CHANNELS 3 Zrotation Yrotation Xrotation
						JOINT Head
						{
							OFFSET 0.104070 1.761360 -0.123970
							CHANNELS 3 Zrotation Yrotation Xrotation
							End Site
							{
								OFFSET 0.000000 0.000000 0.000000
							}
						}
					}
				}
				JOINT LeftShoulder
				{
					OFFSET 0.000000 0.000000 0.000000
					CHANNELS 3 Zrotation Yrotation Xrotation
					JOINT LeftArm
					{
						OFFSET 3.362410 1.200890 -0.311210
						CHANNELS 3 Zrotation Yrotation Xrotation
						JOINT LeftForeArm
						{
							OFFSET 4.983000 -0.000000 -0.000000
							CHANNELS 3 Zrotation Yrotation Xrotation
							JOINT LeftHand
							{
								OFFSET 3.483560 -0.000000 -0.000000
								CHANNELS 3 Zrotation Yrotation Xrotation
								JOINT LeftFingerBase
								{
									OFFSET 0.000000 0.000000 0.000000
									CHANNELS 3 Zrotation Yrotation Xrotation
									JOINT LeftHandIndex1
									{
										OFFSET 0.715260 -0.000000 -0.000000
										CHANNELS 3 Zrotation Yrotation Xrotation
										End Site
										{
											OFFSET 0.000000 0.000000 0.000000
										}
									}
								}
								JOINT LThumb
								{
									OFFSET 0.000000 0.000000 0.000000
									CHANNELS 3 Zrotation Yrotation Xrotation
									End Site
									{
										OFFSET 0.000000 0.000000 0.000000
									}
								}
							}
						}
					}
				}
				JOINT RightShoulder
				{
					OFFSET 0.000000 0.000000 0.000000
					CHANNELS 3 Zrotation Yrotation Xrotation
					JOINT RightArm
					{
						OFFSET -3.136600 1.374050 -0.404650
						CHANNELS 3 Zrotation Yrotation Xrotation
						JOINT RightForeArm
						{
							OFFSET -5.241900 -0.000000 -0.000000
							CHANNELS 3 Zrotation Yrotation Xrotation
							JOINT RightHand
							{
								OFFSET -3.444170 -0.000000 -0.000000
								CHANNELS 3 Zrotation Yrotation Xrotation
								JOINT RightFingerBase
								{
									OFFSET 0.000000 0.000000 0.000000
									CHANNELS 3 Zrotation Yrotation Xrotation
									JOINT RightHandIndex1
									{
										OFFSET -0.622530 -0.000000 -0.000000
										CHANNELS 3 Zrotation Yrotation Xrotation
										End Site
										{
											OFFSET 0.000000 0.000000 0.000000
										}
									}
								}
								JOINT RThumb
								{
									OFFSET 0.000000 0.000000 0.000000
									CHANNELS 3 Zrotation Yrotation Xrotation
									End Site
									{
										OFFSET 0.000000 0.000000 0.000000
									}
								}
							}
						}
					}
				}
			}
		}
	}
}
MOTION
Frames: 12
Frame Time: 0.008333
0.003899 16.050642 -35.888728 -9.418777 -32.670170 11.968899 9.355551 1.435847 -9.103586 -10.183833 26.258817 -57.121295 11.106906 21.597185 55.998735 3.247575 -2.340372 26.018047 0.005800 -0.491200 -1.349800 0.358346 -6.884587 11.006886 0.834191 1.985565 0.120333 -0.611901 -6.885692 20.621351 19.664254 -38.651860 3.450391 -2.006400 8.879500 -25.419100 1.822423 0.156686 4.392416 0.988584 0.743310 -2.966662 1.567422 -0.050396 -3.252187 -2.861031 -4.626186 -7.424569 4.771461 -6.131587 11.007807 2.206500 -3.076100 5.687100 1.370592 -10.113111 2.331019 -46.987137 -25.799918 37.006577 15.978334 -19.921430 -6.866491 -5.590123 -1.309781 27.207642 16.802934 21.821251 9.322700 -7.125000 0.000000 0.000000 -9.260100 56.411200 -2.606600 -5.847771 9.268791 0.952681 61.849140 -33.782762 58.995721 -119.558683 57.223613 -89.540219 -1.223692 3.428087 -48.695811 -1.346096 -11.517952 0.787000 7.125000 0.000000 0.000000 22.121400 -43.521100 0.851900 
0.003663 16.052769 -35.891563 -9.394846 -32.650211 11.967966 9.344264 1.424551 -9.103859 -10.191679 26.232150 -57.117790 11.094564 21.590859 55.969077 3.239393 -2.317116 26.048625 0.005300 -0.469400 -1.289900 0.366321 -6.874336 11.000208 0.830116 1.929623 0.070569 -0.630060 -6.896493 20.651382 19.699945 -38.715451 3.446209 -2.010100 8.887000 -25.442500 1.790096 0.144491 4.417773 0.992017 0.723564 -2.970874 1.588586 -0.057445 -3.309764 -2.859128 -4.634252 -7.368252 4.780644 -6.141821 10.944142 2.202600 -3.078400 5.609000 1.373520 -10.118755 2.338183 -46.985159 -25.770255 36.995825 15.995950 -19.940387 -6.880201 -5.590749 -1.312308 27.162245 16.831327 21.820238 9.336300 -7.125000 0.000000 0.000000 -9.226400 56.414800 -2.597800 -5.839665 9.277756 0.960659 61.809034 -33.823470 59.035400 -119.567092 57.220880 -89.550076 -1.223122 3.429624 -48.726673 -1.381685 -11.516569 0.796800 7.125000 0.000000 0.000000 22.087200 -43.523300 0.849200 
0.003309 16.051823 -35.894281 -9.383627 -32.638275 11.974990 9.342361 1.419437 -9.107029 -10.202064 26.229914 -57.131996 11.088654 21.587589 55.957239 3.241498 -2.322468 26.055904 0.004800 -0.448800 -1.233300 0.367071 -6.866487 10.993292 0.833158 1.903569 0.046014 -0.636344 -6.902871 20.674412 19.697993 -38.710357 3.442042 -2.032800 8.934000 -25.589000 1.771142 0.117413 4.411681 0.996733 0.686224 -2.970301 1.612633 -0.074729 -3.329020 -2.865237 -4.633649 -7.318483 4.798845 -6.140156 10.886776 2.214300 -3.075400 5.526800 1.365632 -10.117425 2.349437 -46.951213 -25.734395 36.942567 15.987143 -19.948213 -6.889439 -5.606839 -1.309048 27.083558 16.928352 21.837884 9.396100 -7.125000 0.000000 0.000000 -9.106700 56.450800 -2.571700 -5.828496 9.277684 0.970482 61.749517 -33.797879 59.115632 -119.524399 57.233503 -89.522089 -1.224188 3.434626 -48.733071 -1.408024 -11.564358 0.807100 7.125000 0.000000 0.000000 22.080800 -43.574400 0.819500 
0.002245 16.052887 -35.894754 -9.369621 -32.666236 11.946538 9.340848 1.424969 -9.096380 -10.202988 26.253948 -57.104604 11.083560 21.582941 55.938200 3.246893 -2.325466 26.081702 0.005600 -0.484900 -1.332400 0.358073 -6.868682 10.990474 0.824030 1.929361 0.058536 -0.637542 -6.908211 20.696851 19.690390 -38.689479 3.415011 -2.005200 8.876800 -25.410800 1.744407 0.118380 4.434354 0.997803 0.686607 -2.970104 1.631264 -0.074507 -3.362639 -2.876565 -4.634293 -7.264470 4.812444 -6.139815 10.853559 2.224900 -3.074500 5.475300 1.360036 -10.118507 2.356858 -46.951786 -25.710300 36.922594 15.971389 -19.942998 -6.884421 -5.606656 -1.296445 27.125345 16.956226 21.823654 9.402900 -7.125000 0.000000 0.000000 -9.063800 56.433800 -2.555700 -5.820086 9.278518 0.975608 61.675547 -33.824182 59.188405 -119.514801 57.240265 -89.519546 -1.225611 3.439701 -48.711207 -1.413842 -11.602412 0.811300 7.125000 0.000000 0.000000 22.090300 -43.615000 0.796500 
0.001418 16.053832 -35.896644 -9.353023 -32.673217 11.931991 9.337510 1.425041 -9.091500 -10.210810 26.262630 -57.095506 11.075999 21.578723 55.920482 3.252774 -2.334481 26.101613 0.005600 -0.482100 -1.324800 0.355628 -6.868165 10.987894 0.817773 1.926621 0.052423 -0.642027 -6.912232 20.710719 19.694613 -38.694880 3.406854 -2.009500 8.885900 -25.438900 1.717102 0.110144 4.450137 0.999766 0.674137 -2.970656 1.648203 -0.080145 -3.392015 -2.876192 -4.637504 -7.221898 4.824398 -6.144241 10.816882 2.230100 -3.075100 5.423600 1.355033 -10.121657 2.364762 -46.932118 -25.690786 36.899339 15.958207 -19.938268 -6.882401 -5.611096 -1.288431 27.127287 16.992858 21.817113 9.419300 -7.125000 0.000000 0.000000 -9.011300 56.429700 -2.539800 -5.811813 9.282349 0.980920 61.627874 -33.826290 59.246580 -119.485968 57.248740 -89.503093 -1.226988 3.443602 -48.707651 -1.423087 -11.641864 0.816400 7.125000 0.000000 0.000000 22.097000 -43.656100 0.773000 
0.000354 16.054778 -35.898180 -9.337298 -32.684911 11.916690 9.335005 1.427305 -9.085799 -10.220208 26.276788 -57.086401 11.068099 21.574759 55.902089 3.260859 -2.348060 26.121446 0.005400 -0.476500 -1.309300 0.352537 -6.871222 10.987534 0.808638 1.931853 0.053200 -0.644122 -6.913292 20.712191 19.699418 -38.703509 3.407996 -2.018500 8.904500 -25.497200 1.691055 0.104213 4.462285 1.001175 0.664874 -2.970973 1.661844 -0.084506 -3.413241 -2.871485 -4.640485 -7.191673 4.833631 -6.149167 10.791584 2.232600 -3.076100 5.387500 1.349481 -10.124903 2.371511 -46.908504 -25.678443 36.875700 15.938479 -19.926257 -6.875349 -5.614151 -1.278647 27.146828 17.017443 21.804340 9.427100 -7.125000 0.000000 0.000000 -8.970300 56.416100 -2.525200 -5.804232 9.285995 0.984090 61.583691 -33.822889 59.302025 -119.454039 57.257726 -89.484472 -1.228685 3.447406 -48.705531 -1.426353 -11.682941 0.820100 7.125000 0.000000 0.000000 22.109600 -43.698300 0.749200 
-0.000709 16.056077 -35.899480 -9.319294 -32.695038 11.902355 9.331951 1.429184 -9.080423 -10.233636 26.290458 -57.080367 11.059652 21.570765 55.882858 3.267883 -2.359209 26.143142 0.005400 -0.475600 -1.306800 0.349735 -6.875110 10.988227 0.798022 1.939501 0.055284 -0.645486 -6.912901 20.708576 19.706058 -38.715804 3.411449 -2.029700 8.927600 -25.569200 1.664921 0.098666 4.468571 1.002214 0.655809 -2.971541 1.672826 -0.088782 -3.426496 -2.863790 -4.641884 -7.176200 4.839425 -6.152522 10.778481 2.232100 -3.076500 5.369100 1.343705 -10.128205 2.376522 -46.881981 -25.672814 36.851383 15.914051 -19.908067 -6.864303 -5.615801 -1.269229 27.179244 17.024865 21.787857 9.424700 -7.125000 0.000000 0.000000 -8.948800 56.396000 -2.514700 -5.797839 9.289484 0.984805 61.542779 -33.817124 59.353454 -119.427922 57.264419 -89.469653 -1.230420 3.450755 -48.708116 -1.426021 -11.718410 0.822500 7.125000 0.000000 0.000000 22.123200 -43.734400 0.728900 
-0.001891 16.057377 -35.900426 -9.304437 -32.702962 11.892909 9.329287 1.431103 -9.076474 -10.246736 26.301948 -57.077713 11.052223 21.567533 55.864484 3.271175 -2.361879 26.164294 0.005600 -0.484300 -1.330800 0.348248 -6.879905 10.990278 0.787727 1.947982 0.058395 -0.645613 -6.910568 20.696204 19.714355 -38.733263 3.423090 -2.043900 8.956900 -25.660700 1.645555 0.093601 4.467214 1.002861 0.647593 -2.972241 1.678766 -0.092830 -3.429622 -2.853396 -4.641930 -7.178086 4.841689 -6.154390 10.777455 2.229400 -3.076600 5.368800 1.338128 -10.131368 2.379612 -46.853560 -25.675689 36.826251 15.886321 -19.884744 -6.850573 -5.617702 -1.261549 27.216336 17.017979 21.773894 9.416900 -7.125000 0.000000 0.000000 -8.945500 56.377800 -2.509800 -5.793208 9.292467 0.983056 61.507503 -33.810151 59.397190 -119.408244 57.269211 -89.458361 -1.231947 3.453494 -48.715727 -1.424018 -11.745280 0.823900 7.125000 0.000000 0.000000 22.134700 -43.761800 0.713500 
-0.003190 16.058559 -35.900898 -9.291585 -32.708284 11.889750 9.326464 1.432328 -9.074361 -10.260165 26.309446 -57.079455 11.045903 21.565028 55.847001 3.269481 -2.353153 26.185094 0.006000 -0.499600 -1.372900 0.347746 -6.885015 10.993138 0.777242 1.956602 0.060801 -0.644879 -6.906671 20.676817 19.725324 -38.756772 3.440689 -2.057400 8.984600 -25.747200 1.632752 0.087491 4.454701 1.003633 0.637814 -2.973108 1.682732 -0.097398 -3.424088 -2.844693 -4.640069 -7.191126 4.840791 -6.153586 10.787233 2.225300 -3.075800 5.382900 1.332746 -10.132708 2.380627 -46.830358 -25.682232 36.793898 15.855125 -19.857992 -6.834953 -5.619534 -1.255020 27.258918 17.000945 21.762232 9.405200 -7.125000 0.000000 0.000000 -8.955800 56.361300 -2.509100 -5.789777 9.293810 0.979334 61.468592 -33.807099 59.439224 -119.403643 57.270533 -89.456912 -1.233432 3.455811 -48.724081 -1.417351 -11.760449 0.823400 7.125000 0.000000 0.000000 22.146100 -43.777500 0.704800 
-0.004372 16.059622 -35.900898 -9.284792 -32.710859 11.893830 9.324296 1.433035 -9.074510 -10.268908 26.311778 -57.083429 11.041602 21.563457 55.831287 3.262309 -2.331921 26.203914 0.006700 -0.530000 -1.456300 0.348741 -6.889288 10.996271 0.769577 1.964050 0.062290 -0.643291 -6.901946 20.653536 19.735652 -38.780497 3.462934 -2.067700 9.005700 -25.813200 1.630291 0.081223 4.432864 1.004394 0.628286 -2.974007 1.684410 -0.101783 -3.411833 -2.842305 -4.636029 -7.211708 4.837538 -6.148835 10.805016 2.222500 -3.073900 5.407200 1.327893 -10.132632 2.380032 -46.814997 -25.693505 36.758147 15.822646 -19.829301 -6.818863 -5.622486 -1.250182 27.301273 16.978109 21.757742 9.394000 -7.125000 0.000000 0.000000 -8.976100 56.352900 -2.513100 -5.787959 9.293473 0.974354 61.427116 -33.810429 59.476194 -119.415847 57.268351 -89.466093 -1.234133 3.457880 -48.729153 -1.416204 -11.765309 0.823900 7.125000 0.000000 0.000000 22.148300 -43.783500 0.701400 
-0.005435 16.060449 -35.900780 -9.282897 -32.704514 11.904242 9.321745 1.431528 -9.077593 -10.271879 26.303841 -57.088949 11.037917 21.562428 55.815951 3.251459 -2.303378 26.222904 0.007500 -0.559400 -1.537200 0.351938 -6.891320 10.999686 0.767190 1.963095 0.060469 -0.641558 -6.896998 20.631013 19.744705 -38.802184 3.484927 -2.078000 9.026700 -25.878900 1.635728 0.073858 4.407432 1.005555 0.617249 -2.975344 1.685653 -0.106582 -3.398085 -2.843145 -4.633495 -7.236582 4.833006 -6.145741 10.827154 2.219900 -3.073200 5.438400 1.324446 -10.132405 2.377992 -46.808317 -25.708315 36.721619 15.791976 -19.801212 -6.804025 -5.626415 -1.246557 27.339082 16.954399 21.759479 9.385100 -7.125000 0.000000 0.000000 -8.999900 56.351900 -2.519600 -5.787642 9.293096 0.968702 61.392362 -33.817247 59.500633 -119.431003 57.265638 -89.477605 -1.234729 3.459110 -48.726160 -1.410156 -11.759812 0.822100 7.125000 0.000000 0.000000 22.151800 -43.779200 0.704100 
-0.006381 16.061158 -35.900662 -9.285182 -32.694452 11.918002 9.319026 1.428853 -9.082193 -10.269521 26.290015 -57.093286 11.034509 21.561708 55.800916 3.239403 -2.272391 26.239047 0.008000 -0.579400 -1.592000 0.356426 -6.891606 11.002546 0.768494 1.955670 0.055788 -0.640527 -6.892849 20.611802 19.752568 -38.822091 3.507501 -2.088800 9.048600 -25.947500 1.646959 0.066621 4.381281 1.006911 0.606875 -2.976652 1.686807 -0.111110 -3.383458 -2.846736 -4.633518 -7.262038 4.827524 -6.145619 10.850041 2.217400 -3.074100 5.470900 1.322368 -10.131818 2.375295 -46.809350 -25.725428 36.685551 15.764479 -19.775215 -6.790988 -5.630663 -1.243230 27.370295 16.934626 21.764034 9.379300 -7.125000 0.000000 0.000000 -9.020000 56.354400 -2.525800 -5.788208 9.292271 0.963201 61.361927 -33.827111 59.514513 -119.454263 57.261029 -89.495041 -1.235124 3.459799 -48.717890 -1.401767 -11.748243 0.819400 7.125000 0.000000 0.000000 22.155200 -43.768500 0.710300 
